<svg id="Wizarding Wared" data-name="Isotipo Wizarding Wares" xmlns="http://www.w3.org/2000/svg" viewBox="0 0 778.17 580.04"><defs><style>.cls-1{fill:#eae0d5;}</style></defs><path class="cls-1" d="M428.16,830,271.76,344.77l-31.35-32.12H403.3l-32.5,32.12,91,317L564.29,348.21,529.87,313H693.15l-32.5,31.74,92.54,314.32L845,349l-34.8-36H929.09l-34,31.74L759.31,796l-37.86,34L587.61,420.48,466.4,796Z" transform="translate(-150.91 -249.98)"/><path class="cls-1" d="M162.82,515.15c11.81-6.67,26.8-4.38,39.4-1.48s24.9,8.09,34.52,16.82a.51.51,0,0,0,.42.13.72.72,0,0,0,.75-.91,71.16,71.16,0,0,1,0-37.84A113,113,0,0,1,245,472.8c2.85-6,5.91-12.59,10-17.86.85-1.1-.94-2.3-1.56-1.07l-.21.37c-9.75,1.58-19.47,2.69-29.37,1.7a85.55,85.55,0,0,1-29.19-8.17,88.59,88.59,0,0,1-14.7-9.44c-1.34-1-3.09.84-1.78,2l.19.15c8.23,24.64,2.09,54.52-16.55,73l-.15.07C160.66,514.12,161.73,515.77,162.82,515.15Z" transform="translate(-150.91 -249.98)"/><path class="cls-1" d="M151.88,383.79c7.51-4.24,17.05-2.79,25.06-.94s15.84,5.14,22,10.7a.36.36,0,0,0,.27.08.46.46,0,0,0,.48-.58,45.31,45.31,0,0,1,0-24.07,72,72,0,0,1,4.53-12.13c1.81-3.84,3.76-8,6.38-11.36.55-.7-.59-1.46-1-.68l-.13.23c-6.2,1-12.38,1.72-18.68,1.09a54.66,54.66,0,0,1-18.57-5.2,56.54,56.54,0,0,1-9.35-6c-.85-.66-2,.53-1.13,1.26l.12.1C167.07,352,163.16,371,151.3,382.7l-.09,0C150.51,383.13,151.18,384.18,151.88,383.79Z" transform="translate(-150.91 -249.98)"/><path class="cls-1" d="M165.81,274.51c3.76-2.12,8.53-1.39,12.53-.47a24.25,24.25,0,0,1,11,5.35.19.19,0,0,0,.14,0,.23.23,0,0,0,.24-.29,22.67,22.67,0,0,1,0-12A35.63,35.63,0,0,1,192,261a30.43,30.43,0,0,1,3.19-5.68c.28-.35-.29-.73-.49-.34a.41.41,0,0,1-.07.11,35.67,35.67,0,0,1-9.34.55,27.3,27.3,0,0,1-9.28-2.6,29.07,29.07,0,0,1-4.68-3c-.42-.33-1,.26-.56.63l.06,0c2.62,7.83.66,17.33-5.27,23.2l0,0C165.13,274.18,165.47,274.7,165.81,274.51Z" transform="translate(-150.91 -249.98)"/></svg>