<svg id="IsoWizardingWares" data-name="IsoWizardingWares" xmlns="http://www.w3.org/2000/svg" viewBox="0 0 33.13 24.7"><defs><style>.cls-1{fill:#eae0d5;}</style></defs><path class="cls-1" d="M535.24,552.35l-6.66-20.66-1.34-1.37h6.94l-1.38,1.37,3.87,13.49L541,531.83l-1.46-1.49h6.95l-1.38,1.35,3.94,13.38,3.9-13.2-1.48-1.53h5.07l-1.45,1.35-5.78,19.21-1.61,1.45L542,534.91l-5.16,16Z" transform="translate(-523.43 -527.65)"/><path class="cls-1" d="M523.94,538.94a2.42,2.42,0,0,1,1.68-.06,3.17,3.17,0,0,1,1.47.72h0s0,0,0,0a3,3,0,0,1,0-1.61,4.63,4.63,0,0,1,.3-.81,3.55,3.55,0,0,1,.43-.76,0,0,0,1,0-.07,0v0a4.75,4.75,0,0,1-1.25.07,3.59,3.59,0,0,1-1.24-.35,4.18,4.18,0,0,1-.63-.4s-.13,0-.07.09h0a3.1,3.1,0,0,1-.71,3.11h0A0,0,0,1,0,523.94,538.94Z" transform="translate(-523.43 -527.65)"/><path class="cls-1" d="M523.47,533.35a1.52,1.52,0,0,1,1.07,0,2.16,2.16,0,0,1,.94.45h0s0,0,0,0a1.86,1.86,0,0,1,0-1,3.24,3.24,0,0,1,.19-.52,2.82,2.82,0,0,1,.27-.48s0-.06,0,0h0a3.59,3.59,0,0,1-.8,0,2.24,2.24,0,0,1-.79-.23,2.42,2.42,0,0,1-.4-.25s-.08,0-.05.05h0a2,2,0,0,1-.45,2h0S523.45,533.37,523.47,533.35Z" transform="translate(-523.43 -527.65)"/><path class="cls-1" d="M524.07,528.7a.74.74,0,0,1,.53,0,1.13,1.13,0,0,1,.47.22h0s0,0,0,0a1.1,1.1,0,0,1,0-.51,2.77,2.77,0,0,1,.1-.26,1.16,1.16,0,0,1,.14-.24s0,0,0,0h0a1.28,1.28,0,0,1-.39,0,1.08,1.08,0,0,1-.4-.11,1.32,1.32,0,0,1-.2-.12s0,0,0,0h0a1,1,0,0,1-.22,1h0S524.05,528.7,524.07,528.7Z" transform="translate(-523.43 -527.65)"/></svg>